<svg width="12" height="7" viewBox="0 0 12 7" fill="none" xmlns="http://www.w3.org/2000/svg">
<path fill-rule="evenodd" clip-rule="evenodd" d="M1.28668 0.723944C1.53672 0.473983 1.8758 0.333562 2.22935 0.333562C2.5829 0.333562 2.92198 0.473983 3.17202 0.723944L6.00002 3.55194L8.82802 0.723944C9.07803 0.473757 9.41718 0.333133 9.77088 0.333008C10.1246 0.332883 10.4638 0.473266 10.714 0.723277C10.9642 0.973288 11.1048 1.31245 11.105 1.66614C11.1051 2.01983 10.9647 2.35909 10.7147 2.60928L6.94268 6.38128C6.69265 6.63124 6.35357 6.77166 6.00002 6.77166C5.64646 6.77166 5.30739 6.63124 5.05735 6.38128L1.28668 2.60928C1.03672 2.35924 0.896301 2.02016 0.896301 1.66661C0.896301 1.31306 1.03672 0.973981 1.28668 0.723944Z" fill="white"/>
</svg>
